<?xml version="1.0" encoding="UTF-8" standalone="no"?>
<!DOCTYPE svg PUBLIC "-//W3C//DTD SVG 1.1//EN" "http://www.w3.org/Graphics/SVG/1.1/DTD/svg11.dtd">
<svg xmlns="http://www.w3.org/2000/svg" version="1.1" viewBox="0.00 0.00 666.00 375.00">
<path fill="#19c4cb" d="
  M 27.91 245.99
  C 27.29 247.92 26.74 251.24 23.96 250.73
  A 1.82 1.82 0.0 0 1 22.46 248.94
  L 22.49 123.50
  Q 22.49 123.12 22.86 123.12
  L 643.64 123.12
  A 0.37 0.36 90.0 0 1 644.00 123.49
  L 644.00 183.45
  A 2.04 2.04 0.0 0 1 641.01 185.26
  Q 635.54 182.39 629.86 179.41
  Q 621.77 175.18 612.80 172.96
  C 607.54 171.67 602.20 170.13 597.02 169.45
  C 584.49 167.80 571.15 168.00 558.74 170.90
  Q 554.05 172.00 549.69 173.16
  Q 535.15 177.01 522.00 185.41
  Q 512.51 191.48 497.98 203.42
  Q 495.38 205.56 492.72 207.44
  Q 489.82 209.50 487.12 211.43
  C 481.59 215.39 475.23 218.82 469.18 221.44
  Q 456.93 226.75 443.02 226.05
  Q 428.47 225.32 417.27 221.41
  Q 405.75 217.39 394.72 213.03
  Q 393.21 212.43 391.64 211.78
  Q 381.84 207.72 370.62 203.91
  C 354.71 198.51 337.80 196.97 321.98 202.88
  Q 319.72 203.73 317.67 204.91
  C 314.21 206.91 310.55 208.56 307.39 210.83
  C 304.85 212.66 302.20 214.40 299.79 216.34
  Q 290.42 223.88 281.03 231.39
  Q 278.72 233.24 276.23 234.74
  C 273.91 236.14 271.96 237.98 269.58 239.30
  C 262.32 243.31 254.30 247.07 246.09 247.88
  Q 233.32 249.14 222.31 246.16
  Q 210.63 243.00 199.78 238.20
  Q 190.56 234.12 181.43 229.74
  Q 172.79 225.58 163.99 221.79
  C 162.30 221.07 160.84 219.98 159.17 219.29
  C 151.51 216.12 143.52 212.59 135.89 210.19
  Q 122.14 205.85 110.86 203.95
  Q 97.93 201.76 83.02 203.38
  Q 80.05 203.70 76.73 204.63
  C 70.44 206.39 63.92 207.96 58.56 211.15
  Q 48.92 216.89 45.57 220.20
  C 41.79 223.94 37.82 227.81 35.05 232.22
  Q 32.08 236.95 29.11 243.03
  Q 28.40 244.48 27.91 245.99
  Z"
/>
</svg>
