<?xml version="1.0" encoding="UTF-8" standalone="no"?>
<!DOCTYPE svg PUBLIC "-//W3C//DTD SVG 1.1//EN" "http://www.w3.org/Graphics/SVG/1.1/DTD/svg11.dtd">
<svg xmlns="http://www.w3.org/2000/svg" version="1.1" viewBox="0.00 0.00 500.00 500.00">
<path stroke="#9ccd93" stroke-width="2.00" fill="none" stroke-linecap="butt" vector-effect="non-scaling-stroke" d="
  M 218.41 277.29
  Q 205.02 263.85 191.74 250.65
  C 183.71 242.68 170.49 243.84 165.40 254.44
  C 161.85 261.80 164.25 268.66 169.74 274.13
  Q 187.10 291.44 206.49 310.86
  C 211.64 316.02 217.87 317.83 225.14 315.17
  Q 227.97 314.12 235.90 306.12
  Q 266.10 275.61 295.91 246.03
  Q 304.38 237.63 300.34 227.39
  C 296.07 216.58 282.16 214.48 274.18 222.46
  Q 247.08 249.55 219.37 277.29
  A 0.67 0.67 0.0 0 1 218.41 277.29"
/>
<path fill="#45a834" d="
  M 349.57 266.95
  A 116.78 116.78 0.0 0 1 232.79 383.73
  A 116.78 116.78 0.0 0 1 116.01 266.95
  A 116.78 116.78 0.0 0 1 232.79 150.17
  A 116.78 116.78 0.0 0 1 349.57 266.95
  Z
  M 218.41 277.29
  Q 205.02 263.85 191.74 250.65
  C 183.71 242.68 170.49 243.84 165.40 254.44
  C 161.85 261.80 164.25 268.66 169.74 274.13
  Q 187.10 291.44 206.49 310.86
  C 211.64 316.02 217.87 317.83 225.14 315.17
  Q 227.97 314.12 235.90 306.12
  Q 266.10 275.61 295.91 246.03
  Q 304.38 237.63 300.34 227.39
  C 296.07 216.58 282.16 214.48 274.18 222.46
  Q 247.08 249.55 219.37 277.29
  A 0.67 0.67 0.0 0 1 218.41 277.29
  Z"
/>
<path fill="#f2f2f2" d="
  M 218.41 277.29
  A 0.67 0.67 0.0 0 0 219.37 277.29
  Q 247.08 249.55 274.18 222.46
  C 282.16 214.48 296.07 216.58 300.34 227.39
  Q 304.38 237.63 295.91 246.03
  Q 266.10 275.61 235.90 306.12
  Q 227.97 314.12 225.14 315.17
  C 217.87 317.83 211.64 316.02 206.49 310.86
  Q 187.10 291.44 169.74 274.13
  C 164.25 268.66 161.85 261.80 165.40 254.44
  C 170.49 243.84 183.71 242.68 191.74 250.65
  Q 205.02 263.85 218.41 277.29
  Z"
/>
</svg>
